<svg width="1386" height="869" viewBox="0 0 1386 869" fill="none" xmlns="http://www.w3.org/2000/svg">
<path d="M409.257 472.931C378.956 472.954 363.552 488.132 379.496 503.149C412.298 534.05 572.308 564.041 583.381 551.649C594.29 539.441 472.486 472.878 409.257 472.931Z" stroke="url(#paint0_linear_11_11)" stroke-width="2" stroke-miterlimit="10"/>
<path d="M491.724 444.117C560.236 446.797 643.654 574.415 592.62 586.379C561.242 593.737 494.737 574.731 441.346 555.952C391.223 538.324 322.652 501.268 312.359 466.331C306.92 447.79 318.55 426.351 340.879 423.531C358.159 421.351 378.618 429.583 383.554 429.75C404.365 441.153 407.065 444.202 424.466 450.092C447.21 457.792 472.883 443.379 491.724 444.117Z" stroke="url(#paint1_linear_11_11)" stroke-width="2" stroke-miterlimit="10"/>
<path d="M570.175 412.034C643.669 438.804 688.23 605.358 597.843 617.84C540.278 625.79 451.89 593.052 391.492 565.521C336.01 540.232 248.074 480.807 241.208 426.244C237.213 394.539 261.447 357.605 304.096 356.074C338.092 354.857 376.745 373.338 383.755 375.797C422.526 400.706 424.12 408.722 454.437 421.629C494.579 438.71 539.465 400.831 570.175 412.034Z" stroke="url(#paint2_linear_11_11)" stroke-width="2" stroke-miterlimit="10"/>
<path d="M643.769 379.051C723.508 414.085 727.979 635.282 598.209 648.397C514.457 656.858 404.116 610.541 336.78 574.186C275.864 541.303 168.97 459.602 165.199 385.253C162.92 340.413 199.404 287.987 262.449 287.711C313.109 287.485 370.461 315.799 379.086 320.937C439.379 356.873 436.289 372.33 479.571 392.266C537.056 418.778 602.004 360.719 643.769 379.051Z" stroke="url(#paint3_linear_11_11)" stroke-width="2" stroke-miterlimit="10"/>
<path d="M713.119 347.338C800.25 390.712 763.387 666.23 594.331 680.227C484.326 689.029 352.032 629.332 277.83 584.131C211.395 543.667 85.6952 439.736 84.9201 345.524C84.4438 287.612 133.088 219.65 216.541 220.604C283.89 221.388 359.277 260.118 370.163 267.33C446.747 318.075 444.138 337.256 500.386 364.158C575.227 400.104 660.964 321.379 713.119 347.338Z" stroke="url(#paint4_linear_11_11)" stroke-width="2" stroke-miterlimit="10"/>
<path d="M167.895 153.453C251.903 155.245 345.284 204.352 358.5 213.684C451.165 279.115 449.333 302.01 518.498 335.983C610.729 381.286 717.681 281.747 779.691 315.539C874.942 367.445 796.264 697.525 587.675 711.971C451.57 721.397 297.106 648.053 216.096 593.983C144.149 545.968 -0.254293 419.832 1.91615 305.727C3.27566 234.757 64.0268 151.234 167.895 153.453Z" stroke="url(#paint5_linear_11_11)" stroke-width="2" stroke-miterlimit="10"/>
<path d="M1034.06 339.812C1002.89 331.634 974.012 288.716 1003.43 290.344C1020.43 291.279 1061.93 307.36 1076.42 320.732C1096.83 339.553 1055.51 345.442 1034.06 339.812Z" stroke="url(#paint6_linear_11_11)" stroke-width="2" stroke-miterlimit="10"/>
<path d="M958.061 283.663C962.263 279.978 977.076 281.666 991.525 279.575C1020.84 275.327 1025.98 271.054 1046.49 269.221C1054.5 268.502 1065.24 267.616 1074.47 271.655C1088.6 277.843 1089.62 289.175 1103.64 312.275C1121.81 342.278 1129.42 350.785 1119.25 361.599C1116.88 364.113 1112.35 373.061 1099.18 375.844C1080.94 379.686 1063.55 368.634 1038.47 367.836C1008.35 366.868 991.322 374.542 980.242 366.372C972.435 360.618 974.586 350.902 972.371 332.454C970.686 318.4 969.716 309.214 965.432 300.823C960.279 290.819 953.386 287.759 958.061 283.663Z" stroke="url(#paint7_linear_11_11)" stroke-width="2" stroke-miterlimit="10"/>
<path d="M907.957 280.725C910.522 272.938 931.733 274.298 951.343 267.13C991.561 252.424 980.033 231.575 1011.84 221.454C1025.34 217.156 1045.4 214.787 1063.33 220.85C1088.78 229.457 1093.27 248.19 1124.63 291.891C1165.63 349.026 1185.68 363.303 1174.82 385.349C1172.6 389.842 1166.95 407.826 1143.72 413.559C1112.74 421.203 1083.53 399.507 1038.08 399.561C987.305 399.605 962.768 421.275 948.105 411.721C937.921 405.086 946.094 390.997 945.128 359.177C944.467 336.566 943.877 323.3 934.336 310.107C922.293 293.466 905.176 289.183 907.957 280.725Z" stroke="url(#paint8_linear_11_11)" stroke-width="2" stroke-miterlimit="10"/>
<path d="M857.831 277.673C858.683 265.787 886.341 266.804 911.14 254.567C962.198 229.377 933.347 192.028 977.168 173.569C995.924 165.672 1025.58 161.914 1052.17 169.931C1089.03 181.039 1097.03 207.049 1145.65 271.406C1209.68 355.623 1241.41 375.706 1230.44 409.003C1228.29 415.495 1221.58 442.484 1188.3 451.189C1144.58 462.621 1103.48 430.239 1037.74 431.2C966.265 432.243 934.282 467.914 915.984 456.979C903.436 449.444 917.46 430.957 917.902 385.805C918.21 354.623 918.006 337.341 903.251 319.295C884.231 296.039 856.898 290.472 857.831 277.673Z" stroke="url(#paint9_linear_11_11)" stroke-width="2" stroke-miterlimit="10"/>
<path d="M807.601 274.568C806.766 258.603 840.8 259.236 870.832 241.955C932.646 206.236 886.368 152.478 942.397 125.636C966.351 114.148 1005.67 109.015 1040.92 118.959C1089.2 132.588 1100.47 165.895 1166.54 250.865C1253.31 362.209 1296.86 388.103 1285.88 432.592C1283.79 441.078 1276.01 477.04 1232.71 488.748C1176.2 503.931 1123.3 460.898 1037.23 462.772C945.044 464.786 905.606 514.494 883.759 502.188C868.835 493.763 888.724 470.863 890.571 412.384C891.829 372.621 892.033 351.352 872.068 328.435C846.045 298.58 808.502 291.735 807.601 274.568Z" stroke="url(#paint10_linear_11_11)" stroke-width="2" stroke-miterlimit="10"/>
<path d="M757.283 271.435C760.015 292.98 807.756 301.091 840.776 337.543C865.957 365.336 865.347 390.584 863.138 438.932C859.858 510.726 834.126 538.05 851.425 547.36C876.855 561.051 923.743 497.298 1036.65 494.322C1143.02 491.52 1207.83 545.294 1277.05 526.286C1330.42 511.628 1339.21 466.675 1341.27 456.154C1352.15 400.461 1296.85 368.763 1187.33 230.291C1103.82 124.707 1089.3 84.1167 1029.55 67.9557C985.663 56.0846 936.653 62.5953 907.517 77.6706C839.299 112.937 903.109 183.152 830.436 229.316C795.217 251.685 754.738 251.391 757.283 271.435Z" stroke="url(#paint11_linear_11_11)" stroke-width="2" stroke-miterlimit="10"/>
<path d="M1073.11 688.03C1065.62 683.398 1047.26 683.898 1043.79 691.132C1039.85 699.339 1057.37 711.462 1066.44 711.424C1077.18 711.375 1083.06 694.166 1073.11 688.03Z" stroke="url(#paint12_linear_11_11)" stroke-width="2" stroke-miterlimit="10"/>
<path d="M1084.26 739.867C1100.2 735.446 1110.03 722.348 1123.42 699.007C1136.7 675.861 1140.2 657.748 1134.49 654.9C1131.37 653.356 1120.63 656.422 1111.6 658.369C1094.68 661.994 1069.24 654.574 1062.45 653.693C1037.61 650.471 1029.13 654.157 1016.35 662.111C1010.45 665.782 996.811 673.785 988.769 685.254C976.538 702.609 942.33 700.14 944.334 708.871C946.032 716.164 978.015 726.043 998.965 731.618C1028.99 739.608 1059.63 746.688 1084.26 739.867Z" stroke="url(#paint13_linear_11_11)" stroke-width="2" stroke-miterlimit="10"/>
<path d="M1102.81 767.519C1129.3 759.108 1144.43 737.462 1169.76 696.222C1195.37 654.822 1203.21 623.928 1196.58 620.999C1191.61 618.785 1171.94 625.592 1155.6 629.873C1124.78 638.007 1077.18 623.141 1066.99 621.553C1020.54 614.218 1006.72 621.671 984.137 636.67C974.73 642.917 949.56 657.567 934.402 678.61C911.116 710.829 841.937 703.065 844.05 717.769C845.825 730.018 907.307 747.618 946.501 756.713C1001.85 769.525 1058.06 781.741 1102.81 767.519Z" stroke="url(#paint14_linear_11_11)" stroke-width="2" stroke-miterlimit="10"/>
<path d="M1121.27 794.998C1158.33 782.606 1178.65 752.37 1216 693.262C1253.83 633.569 1266.08 589.986 1258.58 586.897C1251.72 584.053 1223.13 594.574 1199.52 601.221C1154.86 613.92 1085.05 591.547 1071.46 589.22C1003.47 577.588 984.206 588.942 951.851 611.041C938.939 619.856 902.248 641.162 879.964 671.762C845.641 718.855 741.487 705.785 743.693 726.464C745.552 743.67 836.531 769.061 893.975 781.599C974.603 799.351 1056.47 816.668 1121.27 794.998Z" stroke="url(#paint15_linear_11_11)" stroke-width="2" stroke-miterlimit="10"/>
<path d="M1139.65 822.444C1187.3 806.077 1212.82 767.243 1262.17 690.268C1312.26 612.296 1328.91 556.039 1320.52 552.763C1311.76 549.324 1274.25 563.489 1243.38 572.514C1184.82 589.708 1092.87 559.89 1075.87 556.854C986.355 540.854 961.528 556.115 919.502 585.372C903.045 596.738 854.872 624.717 825.475 664.882C780.096 726.839 640.966 708.468 643.286 735.128C645.217 757.279 765.712 790.386 841.389 806.456C947.292 829.021 1054.84 851.584 1139.65 822.444Z" stroke="url(#paint16_linear_11_11)" stroke-width="2" stroke-miterlimit="10"/>
<path d="M1080.25 524.467C969.224 504.075 938.987 523.379 887.128 559.688C867.189 573.647 807.464 608.256 770.947 657.98C714.545 734.818 540.419 711.136 542.841 743.768C544.848 770.902 694.863 811.685 788.772 831.292C919.993 858.676 1053.19 886.487 1158.01 849.875C1216.25 829.529 1246.94 782.107 1308.31 687.258C1370.61 590.99 1391.66 522.072 1382.43 518.609C1371.72 514.597 1325.36 532.375 1287.23 543.787C1214.75 565.47 1100.67 528.218 1080.25 524.467Z" stroke="url(#paint17_linear_11_11)" stroke-width="2" stroke-miterlimit="10"/>
<path d="M245.722 93.1338C250.605 125.518 343.015 134.629 431.934 227.58C463.795 260.888 482.885 292.071 532.081 308.793C537.046 310.479 586.448 326.771 627.025 316.033C678.075 302.525 659.728 260.885 724.23 225.951C747.988 213.081 749.853 219.069 767.541 208.651C843.029 164.176 766.982 79.8141 835.5 32.5566C867.04 10.8035 904.886 13.6701 902.385 9.12978C891.568 -10.3728 232.469 5.84577 245.722 93.1338Z" stroke="url(#paint18_linear_11_11)" stroke-width="2" stroke-miterlimit="10"/>
<path d="M556.094 272.402C559.2 272.929 591.956 282.966 618.298 274.77C651.6 264.433 637.372 234.769 678.772 210.288C694.01 201.271 694.851 204.993 705.942 197.614C753.265 166.122 697.784 107.966 740.426 76.1926C760.162 61.4823 784.887 63.298 781.836 60.5836C768.059 48.2386 331.169 66.1366 349.383 127.426C356.211 150.411 423.226 160.088 486.813 222.148C509.937 244.703 523.811 266.922 556.094 272.402Z" stroke="url(#paint19_linear_11_11)" stroke-width="2" stroke-miterlimit="10"/>
<path d="M580.109 236.007C581.32 234.888 597.521 239.08 609.571 233.508C625.214 226.283 615.05 208.694 633.314 194.63C640.016 189.466 639.868 190.899 644.351 186.578C663.609 167.987 628.523 136.129 645.36 119.826C653.252 112.144 663.97 113.241 661.343 112.047C640.776 108.637 430.251 126.652 453.009 161.709C461.893 175.405 503.668 185.588 541.658 216.707C556.096 228.536 565.396 236.871 580.109 236.007Z" stroke="url(#paint20_linear_11_11)" stroke-width="2" stroke-miterlimit="10"/>
<path d="M604.122 199.616C598.374 177.68 558.014 160.358 540.794 163.501C515.4 168.15 531.262 186.769 556.65 195.996C575.629 202.878 610.699 224.721 604.122 199.616Z" stroke="url(#paint21_linear_11_11)" stroke-width="2" stroke-miterlimit="10"/>
<defs>
<linearGradient id="paint0_linear_11_11" x1="1148.14" y1="-6.73667" x2="788.888" y2="863.092" gradientUnits="userSpaceOnUse">
<stop stop-color="#FFC4D5" stop-opacity="0.65"/>
<stop offset="1" stop-color="#FFDAE3" stop-opacity="0"/>
</linearGradient>
<linearGradient id="paint1_linear_11_11" x1="1148.14" y1="-6.73667" x2="788.888" y2="863.092" gradientUnits="userSpaceOnUse">
<stop stop-color="#FFC4D5" stop-opacity="0.65"/>
<stop offset="1" stop-color="#FFDAE3" stop-opacity="0"/>
</linearGradient>
<linearGradient id="paint2_linear_11_11" x1="1148.14" y1="-6.73667" x2="788.888" y2="863.092" gradientUnits="userSpaceOnUse">
<stop stop-color="#FFC4D5" stop-opacity="0.65"/>
<stop offset="1" stop-color="#FFDAE3" stop-opacity="0"/>
</linearGradient>
<linearGradient id="paint3_linear_11_11" x1="1148.14" y1="-6.73667" x2="788.888" y2="863.092" gradientUnits="userSpaceOnUse">
<stop stop-color="#FFC4D5" stop-opacity="0.65"/>
<stop offset="1" stop-color="#FFDAE3" stop-opacity="0"/>
</linearGradient>
<linearGradient id="paint4_linear_11_11" x1="1148.14" y1="-6.73667" x2="788.888" y2="863.092" gradientUnits="userSpaceOnUse">
<stop stop-color="#FFC4D5" stop-opacity="0.65"/>
<stop offset="1" stop-color="#FFDAE3" stop-opacity="0"/>
</linearGradient>
<linearGradient id="paint5_linear_11_11" x1="1148.14" y1="-6.73667" x2="788.888" y2="863.092" gradientUnits="userSpaceOnUse">
<stop stop-color="#FFC4D5" stop-opacity="0.65"/>
<stop offset="1" stop-color="#FFDAE3" stop-opacity="0"/>
</linearGradient>
<linearGradient id="paint6_linear_11_11" x1="1148.14" y1="-6.73667" x2="788.888" y2="863.092" gradientUnits="userSpaceOnUse">
<stop stop-color="#FFC4D5" stop-opacity="0.65"/>
<stop offset="1" stop-color="#FFDAE3" stop-opacity="0"/>
</linearGradient>
<linearGradient id="paint7_linear_11_11" x1="1148.14" y1="-6.73667" x2="788.888" y2="863.092" gradientUnits="userSpaceOnUse">
<stop stop-color="#FFC4D5" stop-opacity="0.65"/>
<stop offset="1" stop-color="#FFDAE3" stop-opacity="0"/>
</linearGradient>
<linearGradient id="paint8_linear_11_11" x1="1148.14" y1="-6.73667" x2="788.888" y2="863.092" gradientUnits="userSpaceOnUse">
<stop stop-color="#FFC4D5" stop-opacity="0.65"/>
<stop offset="1" stop-color="#FFDAE3" stop-opacity="0"/>
</linearGradient>
<linearGradient id="paint9_linear_11_11" x1="1148.14" y1="-6.73667" x2="788.888" y2="863.092" gradientUnits="userSpaceOnUse">
<stop stop-color="#FFC4D5" stop-opacity="0.65"/>
<stop offset="1" stop-color="#FFDAE3" stop-opacity="0"/>
</linearGradient>
<linearGradient id="paint10_linear_11_11" x1="1148.14" y1="-6.73667" x2="788.888" y2="863.092" gradientUnits="userSpaceOnUse">
<stop stop-color="#FFC4D5" stop-opacity="0.65"/>
<stop offset="1" stop-color="#FFDAE3" stop-opacity="0"/>
</linearGradient>
<linearGradient id="paint11_linear_11_11" x1="1148.14" y1="-6.73667" x2="788.888" y2="863.092" gradientUnits="userSpaceOnUse">
<stop stop-color="#FFC4D5" stop-opacity="0.65"/>
<stop offset="1" stop-color="#FFDAE3" stop-opacity="0"/>
</linearGradient>
<linearGradient id="paint12_linear_11_11" x1="1148.14" y1="-6.73667" x2="788.888" y2="863.092" gradientUnits="userSpaceOnUse">
<stop stop-color="#FFC4D5" stop-opacity="0.65"/>
<stop offset="1" stop-color="#FFDAE3" stop-opacity="0"/>
</linearGradient>
<linearGradient id="paint13_linear_11_11" x1="1148.14" y1="-6.73667" x2="788.888" y2="863.092" gradientUnits="userSpaceOnUse">
<stop stop-color="#FFC4D5" stop-opacity="0.65"/>
<stop offset="1" stop-color="#FFDAE3" stop-opacity="0"/>
</linearGradient>
<linearGradient id="paint14_linear_11_11" x1="1148.14" y1="-6.73667" x2="788.888" y2="863.092" gradientUnits="userSpaceOnUse">
<stop stop-color="#FFC4D5" stop-opacity="0.65"/>
<stop offset="1" stop-color="#FFDAE3" stop-opacity="0"/>
</linearGradient>
<linearGradient id="paint15_linear_11_11" x1="1148.14" y1="-6.73667" x2="788.888" y2="863.092" gradientUnits="userSpaceOnUse">
<stop stop-color="#FFC4D5" stop-opacity="0.65"/>
<stop offset="1" stop-color="#FFDAE3" stop-opacity="0"/>
</linearGradient>
<linearGradient id="paint16_linear_11_11" x1="1148.14" y1="-6.73667" x2="788.888" y2="863.092" gradientUnits="userSpaceOnUse">
<stop stop-color="#FFC4D5" stop-opacity="0.65"/>
<stop offset="1" stop-color="#FFDAE3" stop-opacity="0"/>
</linearGradient>
<linearGradient id="paint17_linear_11_11" x1="1148.14" y1="-6.73667" x2="788.888" y2="863.092" gradientUnits="userSpaceOnUse">
<stop stop-color="#FFC4D5" stop-opacity="0.65"/>
<stop offset="1" stop-color="#FFDAE3" stop-opacity="0"/>
</linearGradient>
<linearGradient id="paint18_linear_11_11" x1="1148.14" y1="-6.73667" x2="788.888" y2="863.092" gradientUnits="userSpaceOnUse">
<stop stop-color="#FFC4D5" stop-opacity="0.65"/>
<stop offset="1" stop-color="#FFDAE3" stop-opacity="0"/>
</linearGradient>
<linearGradient id="paint19_linear_11_11" x1="1148.14" y1="-6.73667" x2="788.888" y2="863.092" gradientUnits="userSpaceOnUse">
<stop stop-color="#FFC4D5" stop-opacity="0.65"/>
<stop offset="1" stop-color="#FFDAE3" stop-opacity="0"/>
</linearGradient>
<linearGradient id="paint20_linear_11_11" x1="1148.14" y1="-6.73667" x2="788.888" y2="863.092" gradientUnits="userSpaceOnUse">
<stop stop-color="#FFC4D5" stop-opacity="0.65"/>
<stop offset="1" stop-color="#FFDAE3" stop-opacity="0"/>
</linearGradient>
<linearGradient id="paint21_linear_11_11" x1="1148.14" y1="-6.73667" x2="788.888" y2="863.092" gradientUnits="userSpaceOnUse">
<stop stop-color="#FFC4D5" stop-opacity="0.65"/>
<stop offset="1" stop-color="#FFDAE3" stop-opacity="0"/>
</linearGradient>
</defs>
</svg>
